<svg width="147" height="26" viewBox="0 0 147 26" fill="none" xmlns="http://www.w3.org/2000/svg">
<circle cx="12" cy="13" r="11.5" fill="#182522" stroke="white"/>
<circle cx="11.88" cy="12.88" r="9" fill="white"/>
<circle cx="12" cy="13" r="6" fill="#182522"/>
<circle cx="11.88" cy="12.88" r="3" fill="white"/>
<path d="M48.78 5.1H49.34L49.52 9.7H48.78C48.4867 8.52667 47.92 7.60667 47.08 6.94C46.24 6.27333 45.2267 5.94 44.04 5.94C43.2267 5.94 42.5 6.1 41.86 6.42C41.22 6.74 40.68 7.2 40.24 7.8C39.8 8.4 39.46 9.13333 39.22 10C38.9933 10.8667 38.88 11.8467 38.88 12.94C38.88 15.0867 39.3267 16.74 40.22 17.9C41.1133 19.0467 42.4067 19.62 44.1 19.62C46.6733 19.62 48.3267 18.2533 49.06 15.52H49.88V20.5H49.18L48.72 18.92C47.32 20.1067 45.6267 20.7 43.64 20.7C42.5067 20.7 41.48 20.52 40.56 20.16C39.6533 19.8 38.8733 19.2933 38.22 18.64C37.58 17.9733 37.08 17.1667 36.72 16.22C36.3733 15.2733 36.2 14.22 36.2 13.06C36.2 11.8467 36.3867 10.74 36.76 9.74C37.1333 8.74 37.6533 7.88 38.32 7.16C39 6.44 39.8067 5.88667 40.74 5.5C41.6867 5.1 42.7267 4.9 43.86 4.9C44.66 4.9 45.4133 5.01333 46.12 5.24C46.8267 5.46667 47.5933 5.83333 48.42 6.34L48.78 5.1ZM55.5952 17.32C55.5952 17.84 55.6152 18.26 55.6552 18.58C55.7085 18.8867 55.8018 19.1333 55.9352 19.32C56.0685 19.4933 56.2552 19.6133 56.4952 19.68C56.7352 19.7467 57.0552 19.7867 57.4552 19.8V20.5H51.7152V19.8C52.1152 19.7867 52.4418 19.7467 52.6952 19.68C52.9485 19.6 53.1418 19.48 53.2752 19.32C53.4218 19.1467 53.5152 18.9133 53.5552 18.62C53.6085 18.3133 53.6352 17.9267 53.6352 17.46V14.9C53.6352 14.1267 53.6218 13.4933 53.5952 13C53.5818 12.4933 53.5485 12.1467 53.4952 11.96C53.4285 11.6533 53.2752 11.4467 53.0352 11.34C52.7952 11.22 52.3418 11.16 51.6752 11.16V10.46L55.5952 9.7V17.32ZM53.2952 5.64C53.2952 5.29333 53.4152 5 53.6552 4.76C53.8952 4.52 54.1885 4.4 54.5352 4.4C54.8818 4.4 55.1752 4.52 55.4152 4.76C55.6552 5 55.7752 5.29333 55.7752 5.64C55.7752 5.98667 55.6552 6.28 55.4152 6.52C55.1752 6.76 54.8818 6.88 54.5352 6.88C54.1885 6.88 53.8952 6.76 53.6552 6.52C53.4152 6.28 53.2952 5.98667 53.2952 5.64ZM62.2916 17.32C62.2916 17.8667 62.3049 18.3 62.3316 18.62C62.3582 18.94 62.4249 19.1867 62.5316 19.36C62.6516 19.52 62.8182 19.6267 63.0316 19.68C63.2449 19.7333 63.5449 19.7733 63.9316 19.8V20.5H58.6116V19.8C58.9982 19.7867 59.3049 19.7533 59.5316 19.7C59.7582 19.6333 59.9316 19.52 60.0516 19.36C60.1716 19.2 60.2449 18.9733 60.2716 18.68C60.3116 18.3733 60.3316 17.9667 60.3316 17.46V15.12C60.3316 14.2133 60.3182 13.5067 60.2916 13C60.2782 12.4933 60.2116 12.12 60.0916 11.88C59.9849 11.64 59.8116 11.5 59.5716 11.46C59.3316 11.4067 58.9982 11.38 58.5716 11.38V10.68L62.0716 9.92L62.3516 12.4H62.4316C62.6049 12 62.8182 11.6333 63.0716 11.3C63.3382 10.9667 63.6249 10.6867 63.9316 10.46C64.2382 10.22 64.5582 10.0333 64.8916 9.9C65.2249 9.76667 65.5649 9.7 65.9116 9.7C66.3382 9.7 66.6716 9.80667 66.9116 10.02C67.1649 10.22 67.2916 10.4933 67.2916 10.84C67.2916 11.16 67.1916 11.4133 66.9916 11.6C66.7916 11.7733 66.5049 11.86 66.1316 11.86C65.9182 11.86 65.7382 11.8333 65.5916 11.78C65.4449 11.7267 65.3116 11.6733 65.1916 11.62C65.0849 11.5533 64.9782 11.4933 64.8716 11.44C64.7782 11.3867 64.6716 11.36 64.5516 11.36C64.1916 11.36 63.8316 11.5933 63.4716 12.06C63.1116 12.5133 62.8316 13.0933 62.6316 13.8C62.5249 14.1867 62.4382 14.6267 62.3716 15.12C62.3182 15.6 62.2916 16.1067 62.2916 16.64V17.32ZM77.288 18.84C76.808 19.4267 76.188 19.8867 75.428 20.22C74.668 20.54 73.848 20.7 72.968 20.7C72.2613 20.7 71.608 20.5733 71.008 20.32C70.4213 20.0533 69.9146 19.6867 69.488 19.22C69.0613 18.74 68.728 18.1667 68.488 17.5C68.2613 16.8333 68.148 16.0933 68.148 15.28C68.148 14.4267 68.2813 13.66 68.548 12.98C68.8146 12.2867 69.188 11.7 69.668 11.22C70.1613 10.7267 70.748 10.3533 71.428 10.1C72.1213 9.83333 72.8813 9.7 73.708 9.7C74.228 9.7 74.7013 9.74667 75.128 9.84C75.5546 9.92 75.9213 10.04 76.228 10.2C76.548 10.3467 76.7946 10.5333 76.968 10.76C77.1413 10.9733 77.228 11.2067 77.228 11.46C77.228 11.7267 77.1413 11.9333 76.968 12.08C76.7946 12.2267 76.5546 12.3 76.248 12.3C76.008 12.3 75.808 12.2533 75.648 12.16C75.488 12.0533 75.2813 11.8267 75.028 11.48C74.7613 11.1733 74.5013 10.96 74.248 10.84C74.008 10.7067 73.6946 10.64 73.308 10.64C72.3613 10.64 71.6413 11.0067 71.148 11.74C70.668 12.4733 70.428 13.5533 70.428 14.98C70.428 16.5133 70.6946 17.68 71.228 18.48C71.7746 19.2667 72.568 19.66 73.608 19.66C74.168 19.66 74.6946 19.5533 75.188 19.34C75.6813 19.1133 76.1813 18.7533 76.688 18.26L77.288 18.84ZM87.1506 13.1C87.1506 12.5533 87.1373 12.1267 87.1106 11.82C87.084 11.5 87.0106 11.26 86.8906 11.1C86.784 10.9267 86.6173 10.8133 86.3906 10.76C86.1773 10.6933 85.8773 10.64 85.4906 10.6V9.9H89.1106V16.04C89.1106 16.8 89.1173 17.42 89.1306 17.9C89.1573 18.38 89.1906 18.74 89.2306 18.98C89.2573 19.1533 89.2973 19.2933 89.3506 19.4C89.4173 19.4933 89.5106 19.5733 89.6306 19.64C89.7506 19.6933 89.904 19.7333 90.0906 19.76C90.2906 19.7733 90.544 19.78 90.8506 19.78V20.48L87.5506 20.72L87.3306 18.32H87.2506C86.744 19.1467 86.1573 19.7533 85.4906 20.14C84.8373 20.5133 84.1506 20.7 83.4306 20.7C82.8706 20.7 82.324 20.5933 81.7906 20.38C81.2706 20.1667 80.8773 19.88 80.6106 19.52C80.384 19.2267 80.2173 18.82 80.1106 18.3C80.0173 17.78 79.9706 17.1067 79.9706 16.28V13.1C79.9706 12.5533 79.9573 12.1267 79.9306 11.82C79.904 11.5 79.8306 11.26 79.7106 11.1C79.604 10.9267 79.4373 10.8133 79.2106 10.76C78.9973 10.6933 78.6973 10.64 78.3106 10.6V9.9H81.9306V15.36C81.9306 16.8133 82.0973 17.8667 82.4306 18.52C82.7773 19.1733 83.324 19.5 84.0706 19.5C85.244 19.5 86.1573 18.7333 86.8106 17.2C86.8773 17.04 86.9306 16.8933 86.9706 16.76C87.0106 16.6267 87.044 16.48 87.0706 16.32C87.0973 16.16 87.1173 15.98 87.1306 15.78C87.144 15.58 87.1506 15.34 87.1506 15.06V13.1ZM95.4691 17.38C95.4691 17.8867 95.4891 18.2933 95.5291 18.6C95.5691 18.9067 95.6491 19.1467 95.7691 19.32C95.9024 19.4933 96.0824 19.6133 96.3091 19.68C96.5491 19.7467 96.8624 19.7867 97.2491 19.8V20.5H91.7291V19.8C92.1291 19.7867 92.4491 19.7467 92.6891 19.68C92.9291 19.6 93.1157 19.48 93.2491 19.32C93.3957 19.16 93.4891 18.94 93.5291 18.66C93.5824 18.3667 93.6091 17.9867 93.6091 17.52V8.9C93.6091 8.18 93.5957 7.58 93.5691 7.1C93.5557 6.60667 93.5291 6.27333 93.4891 6.1C93.4224 5.79333 93.2624 5.58667 93.0091 5.48C92.7691 5.37333 92.3291 5.32 91.6891 5.32V4.64L95.4691 3.9V17.38ZM104.773 14.58C104.013 14.8733 103.366 15.16 102.833 15.44C102.313 15.72 101.893 16 101.573 16.28C101.253 16.56 101.02 16.84 100.873 17.12C100.74 17.4 100.673 17.6867 100.673 17.98C100.673 18.42 100.82 18.78 101.113 19.06C101.406 19.34 101.793 19.48 102.273 19.48C102.62 19.48 102.94 19.3933 103.233 19.22C103.54 19.0467 103.806 18.8133 104.033 18.52C104.26 18.2133 104.44 17.86 104.573 17.46C104.706 17.0467 104.773 16.6133 104.773 16.16V14.58ZM104.773 13.72V12.9C104.773 11.2733 104.08 10.46 102.693 10.46C102.466 10.46 102.273 10.48 102.113 10.52C101.953 10.56 101.82 10.6267 101.713 10.72C101.606 10.8133 101.506 10.9467 101.413 11.12C101.333 11.2933 101.253 11.5067 101.173 11.76C101.026 12.1467 100.88 12.4067 100.733 12.54C100.6 12.66 100.4 12.72 100.133 12.72C99.4663 12.72 99.133 12.3867 99.133 11.72C99.133 11.08 99.473 10.5867 100.153 10.24C100.833 9.88 101.8 9.7 103.053 9.7C104.386 9.7 105.333 9.94 105.893 10.42C106.453 10.8867 106.733 11.6867 106.733 12.82V17.3C106.733 18.82 107.033 19.58 107.633 19.58C107.82 19.58 108 19.56 108.173 19.52C108.346 19.4667 108.493 19.34 108.613 19.14L108.893 19.62C108.733 19.9267 108.44 20.1867 108.013 20.4C107.586 20.6 107.14 20.7 106.673 20.7C106.086 20.7 105.646 20.5133 105.353 20.14C105.073 19.7667 104.933 19.24 104.933 18.56H104.833C104.486 19.2133 104.006 19.7333 103.393 20.12C102.78 20.4933 102.1 20.68 101.353 20.68C100.513 20.68 99.853 20.4667 99.373 20.04C98.893 19.6133 98.653 19.04 98.653 18.32C98.653 18 98.7063 17.6933 98.813 17.4C98.933 17.1067 99.1196 16.8267 99.373 16.56C99.6263 16.2933 99.9596 16.0333 100.373 15.78C100.786 15.5133 101.293 15.2467 101.893 14.98L104.773 13.72ZM113.307 17.32C113.307 17.8667 113.321 18.3 113.347 18.62C113.374 18.94 113.441 19.1867 113.547 19.36C113.667 19.52 113.834 19.6267 114.047 19.68C114.261 19.7333 114.561 19.7733 114.947 19.8V20.5H109.627V19.8C110.014 19.7867 110.321 19.7533 110.547 19.7C110.774 19.6333 110.947 19.52 111.067 19.36C111.187 19.2 111.261 18.9733 111.287 18.68C111.327 18.3733 111.347 17.9667 111.347 17.46V15.12C111.347 14.2133 111.334 13.5067 111.307 13C111.294 12.4933 111.227 12.12 111.107 11.88C111.001 11.64 110.827 11.5 110.587 11.46C110.347 11.4067 110.014 11.38 109.587 11.38V10.68L113.087 9.92L113.367 12.4H113.447C113.621 12 113.834 11.6333 114.087 11.3C114.354 10.9667 114.641 10.6867 114.947 10.46C115.254 10.22 115.574 10.0333 115.907 9.9C116.241 9.76667 116.581 9.7 116.927 9.7C117.354 9.7 117.687 9.80667 117.927 10.02C118.181 10.22 118.307 10.4933 118.307 10.84C118.307 11.16 118.207 11.4133 118.007 11.6C117.807 11.7733 117.521 11.86 117.147 11.86C116.934 11.86 116.754 11.8333 116.607 11.78C116.461 11.7267 116.327 11.6733 116.207 11.62C116.101 11.5533 115.994 11.4933 115.887 11.44C115.794 11.3867 115.687 11.36 115.567 11.36C115.207 11.36 114.847 11.5933 114.487 12.06C114.127 12.5133 113.847 13.0933 113.647 13.8C113.541 14.1867 113.454 14.6267 113.387 15.12C113.334 15.6 113.307 16.1067 113.307 16.64V17.32ZM132.573 14.92H127.233C127.006 15.4667 126.813 15.9533 126.653 16.38C126.493 16.7933 126.359 17.1533 126.253 17.46C126.159 17.7667 126.093 18.0267 126.053 18.24C126.013 18.4533 125.993 18.6267 125.993 18.76C125.993 19.1333 126.113 19.3933 126.353 19.54C126.593 19.6733 126.993 19.74 127.553 19.74V20.5H122.692V19.74C122.999 19.7 123.259 19.6467 123.472 19.58C123.699 19.5133 123.893 19.42 124.053 19.3C124.226 19.18 124.373 19.0267 124.493 18.84C124.626 18.64 124.753 18.4 124.873 18.12L130.073 5.1H130.933L135.473 16.38C135.779 17.1267 136.046 17.7267 136.273 18.18C136.499 18.62 136.719 18.9533 136.933 19.18C137.146 19.4067 137.373 19.5533 137.613 19.62C137.866 19.6867 138.166 19.72 138.513 19.72V20.5H131.993V19.72C132.699 19.72 133.186 19.6533 133.453 19.52C133.719 19.3867 133.853 19.1667 133.853 18.86C133.853 18.7267 133.846 18.6067 133.832 18.5C133.819 18.38 133.793 18.2533 133.753 18.12C133.726 17.9867 133.679 17.84 133.613 17.68C133.559 17.5067 133.486 17.3067 133.393 17.08L132.573 14.92ZM127.633 13.92H132.193L129.973 8.02L127.633 13.92ZM143.462 16.72C143.462 17.3867 143.488 17.9133 143.542 18.3C143.595 18.6867 143.695 18.9867 143.842 19.2C144.002 19.4133 144.222 19.5533 144.502 19.62C144.795 19.6867 145.175 19.7267 145.642 19.74V20.5H139.162V19.74C139.628 19.7267 140.002 19.6867 140.282 19.62C140.575 19.54 140.802 19.4 140.962 19.2C141.122 19 141.228 18.72 141.282 18.36C141.335 17.9867 141.362 17.4867 141.362 16.86V8.74C141.362 8.18 141.335 7.72 141.282 7.36C141.242 6.98667 141.148 6.69333 141.002 6.48C140.868 6.26667 140.668 6.12 140.402 6.04C140.135 5.94667 139.788 5.88667 139.362 5.86V5.1H145.442V5.86C145.015 5.87333 144.668 5.92667 144.402 6.02C144.148 6.11333 143.948 6.27333 143.802 6.5C143.668 6.71333 143.575 7.01333 143.522 7.4C143.482 7.78667 143.462 8.28 143.462 8.88V16.72Z" fill="white"/>
</svg>
